<svg xmlns="http://www.w3.org/2000/svg" width="1200" height="420" viewBox="0 0 1200 420">
  <rect width="100%" height="100%" fill="#ffffff"/>
  <line x1="70" y1="360" x2="1170" y2="360" stroke="#333"/>
  <line x1="70" y1="30" x2="70" y2="360" stroke="#333"/>
  <text x="70" y="22" font-family="Arial" font-size="18" fill="#111">Volumen diario de articulos y peaks detectados</text>
  <polyline fill="none" stroke="#1f77b4" stroke-width="2" points="70.0,256.3 71.0,243.3 72.0,120.5 73.0,97.8 74.0,115.8 75.0,136.5 76.0,245.8 77.0,249.1 78.0,111.1 79.0,98.3 80.0,102.5 81.1,118.9 82.1,122.2 83.1,249.4 84.1,269.9 85.1,124.5 86.1,116.4 87.1,115.5 88.1,127.8 89.1,137.5 90.1,240.2 91.1,237.7 92.1,130.3 93.1,109.8 94.1,123.6 95.1,103.9 96.1,136.5 97.1,238.5 98.1,254.1 99.1,111.9 100.1,129.8 101.1,119.5 102.1,123.1 103.2,135.3 104.2,233.8 105.2,251.9 106.2,122.8 107.2,121.4 108.2,123.6 109.2,153.0 110.2,153.2 111.2,244.9 112.2,264.6 113.2,151.5 114.2,137.3 115.2,115.9 116.2,109.1 117.2,132.0 118.2,224.5 119.2,254.4 120.2,105.5 121.2,98.5 122.2,93.2 123.2,106.1 124.2,117.6 125.3,217.8 126.3,259.9 127.3,120.1 128.3,114.1 129.3,119.5 130.3,109.5 131.3,144.2 132.3,256.9 133.3,248.3 134.3,128.3 135.3,117.3 136.3,105.0 137.3,101.6 138.3,122.0 139.3,235.1 140.3,248.6 141.3,110.9 142.3,95.3 143.3,106.6 144.3,97.5 145.3,124.5 146.3,231.5 147.4,238.4 148.4,120.5 149.4,105.3 150.4,110.9 151.4,111.6 152.4,95.5 153.4,244.9 154.4,248.2 155.4,120.1 156.4,101.7 157.4,120.6 158.4,108.1 159.4,127.9 160.4,246.9 161.4,250.1 162.4,124.4 163.4,103.8 164.4,117.8 165.4,122.2 166.4,230.9 167.4,250.2 168.4,254.7 169.5,143.4 170.5,116.7 171.5,120.8 172.5,102.1 173.5,141.7 174.5,235.7 175.5,253.3 176.5,129.2 177.5,118.3 178.5,102.1 179.5,122.8 180.5,131.4 181.5,244.3 182.5,258.6 183.5,125.6 184.5,121.2 185.5,90.5 186.5,121.5 187.5,128.9 188.5,234.9 189.5,247.6 190.5,237.0 191.6,137.8 192.6,115.8 193.6,118.0 194.6,130.6 195.6,245.1 196.6,190.3 197.6,229.0 198.6,221.7 199.6,94.3 200.6,120.0 201.6,123.6 202.6,241.0 203.6,260.8 204.6,129.3 205.6,112.0 206.6,113.4 207.6,108.9 208.6,111.1 209.6,245.7 210.6,244.4 211.6,114.1 212.6,107.0 213.7,116.1 214.7,100.8 215.7,122.2 216.7,231.3 217.7,249.1 218.7,123.4 219.7,109.4 220.7,98.3 221.7,89.1 222.7,112.2 223.7,238.2 224.7,258.5 225.7,112.2 226.7,106.9 227.7,108.0 228.7,102.7 229.7,113.9 230.7,235.5 231.7,257.5 232.7,111.1 233.7,100.3 234.7,109.4 235.8,134.5 236.8,122.0 237.8,235.7 238.8,258.5 239.8,138.9 240.8,113.6 241.8,218.1 242.8,128.6 243.8,129.8 244.8,231.5 245.8,252.1 246.8,239.9 247.8,149.5 248.8,129.7 249.8,133.6 250.8,134.6 251.8,244.3 252.8,257.4 253.8,213.1 254.8,216.8 255.8,184.4 256.8,171.8 257.9,194.5 258.9,262.2 259.9,270.6 260.9,195.8 261.9,184.2 262.9,185.0 263.9,167.7 264.9,175.2 265.9,255.8 266.9,283.3 267.9,164.4 268.9,156.5 269.9,151.6 270.9,140.7 271.9,154.1 272.9,266.1 273.9,273.8 274.9,158.7 275.9,142.4 276.9,140.7 277.9,139.3 278.9,158.0 280.0,259.1 281.0,269.7 282.0,156.3 283.0,150.1 284.0,136.2 285.0,147.7 286.0,157.6 287.0,257.2 288.0,272.7 289.0,157.7 290.0,138.9 291.0,139.2 292.0,145.4 293.0,147.9 294.0,251.6 295.0,268.3 296.0,170.8 297.0,253.5 298.0,166.6 299.0,161.0 300.0,167.4 301.1,255.2 302.1,279.5 303.1,175.7 304.1,163.5 305.1,153.7 306.1,152.3 307.1,209.7 308.1,278.4 309.1,279.1 310.1,171.0 311.1,169.9 312.1,155.4 313.1,166.8 314.1,173.0 315.1,257.2 316.1,271.6 317.1,174.3 318.1,168.6 319.1,161.3 320.1,168.0 321.1,165.4 322.1,258.8 323.2,265.8 324.2,154.8 325.2,163.7 326.2,148.8 327.2,186.7 328.2,332.7 329.2,247.7 330.2,257.5 331.2,253.5 332.2,262.2 333.2,147.1 334.2,138.7 335.2,143.5 336.2,239.9 337.2,253.2 338.2,137.8 339.2,117.3 340.2,110.9 341.2,113.6 342.2,130.0 343.2,232.7 344.2,246.8 345.3,136.5 346.3,110.0 347.3,104.1 348.3,109.5 349.3,125.8 350.3,239.1 351.3,240.5 352.3,228.1 353.3,120.6 354.3,107.8 355.3,124.5 356.3,128.9 357.3,239.9 358.3,250.8 359.3,109.8 360.3,95.7 361.3,79.9 362.3,90.5 363.3,123.6 364.3,215.7 365.3,242.7 366.3,130.3 367.4,108.6 368.4,106.3 369.4,105.9 370.4,210.3 371.4,222.9 372.4,226.0 373.4,106.3 374.4,122.8 375.4,203.9 376.4,122.0 377.4,122.0 378.4,218.1 379.4,232.4 380.4,100.6 381.4,84.7 382.4,89.7 383.4,85.1 384.4,108.9 385.4,208.4 386.4,243.0 387.4,108.8 388.4,102.5 389.5,91.8 390.5,95.8 391.5,105.3 392.5,232.4 393.5,257.1 394.5,122.8 395.5,113.0 396.5,88.3 397.5,115.0 398.5,129.7 399.5,226.0 400.5,237.6 401.5,118.3 402.5,101.7 403.5,100.5 404.5,103.0 405.5,109.5 406.5,226.5 407.5,245.7 408.5,107.5 409.5,103.8 410.5,98.8 411.6,116.9 412.6,220.0 413.6,236.3 414.6,240.9 415.6,119.1 416.6,109.2 417.6,101.7 418.6,105.5 419.6,124.2 420.6,243.5 421.6,162.1 422.6,115.3 423.6,117.3 424.6,107.0 425.6,113.6 426.6,139.5 427.6,242.3 428.6,256.4 429.6,261.6 430.6,133.9 431.6,118.4 432.6,121.2 433.7,143.5 434.7,242.4 435.7,258.2 436.7,262.5 437.7,141.0 438.7,121.4 439.7,120.9 440.7,130.7 441.7,226.3 442.7,225.7 443.7,107.5 444.7,79.0 445.7,67.7 446.7,66.5 447.7,94.7 448.7,215.9 449.7,237.4 450.7,91.6 451.7,80.7 452.7,81.0 453.7,87.4 454.7,102.7 455.8,224.6 456.8,232.6 457.8,111.1 458.8,86.0 459.8,98.5 460.8,93.0 461.8,102.8 462.8,222.8 463.8,228.2 464.8,125.0 465.8,130.4 466.8,102.1 467.8,90.0 468.8,130.6 469.8,212.3 470.8,233.7 471.8,115.0 472.8,79.9 473.8,94.6 474.8,84.9 475.8,121.7 476.8,221.7 477.9,249.4 478.9,128.9 479.9,114.4 480.9,95.2 481.9,93.2 482.9,117.3 483.9,213.9 484.9,247.4 485.9,118.3 486.9,89.6 487.9,93.8 488.9,101.0 489.9,107.0 490.9,208.6 491.9,232.3 492.9,107.4 493.9,83.8 494.9,68.8 495.9,86.3 496.9,100.8 497.9,199.1 498.9,236.8 500.0,119.8 501.0,104.2 502.0,97.5 503.0,101.3 504.0,109.4 505.0,229.3 506.0,238.8 507.0,119.4 508.0,105.0 509.0,105.8 510.0,98.8 511.0,123.6 512.0,235.5 513.0,238.5 514.0,122.8 515.0,98.6 516.0,98.0 517.0,115.5 518.0,124.0 519.0,235.4 520.0,253.5 521.1,133.6 522.1,107.0 523.1,113.4 524.1,124.8 525.1,237.3 526.1,248.0 527.1,251.3 528.1,123.9 529.1,99.2 530.1,97.2 531.1,107.2 532.1,120.6 533.1,229.2 534.1,251.3 535.1,126.2 536.1,92.2 537.1,95.8 538.1,87.5 539.1,107.7 540.1,213.2 541.1,236.5 542.1,114.8 543.2,76.3 544.2,97.5 545.2,83.5 546.2,93.8 547.2,215.4 548.2,238.2 549.2,104.1 550.2,91.4 551.2,85.7 552.2,82.7 553.2,114.4 554.2,201.6 555.2,240.7 556.2,125.8 557.2,97.5 558.2,216.1 559.2,118.0 560.2,117.0 561.2,227.9 562.2,244.7 563.2,116.1 564.2,87.5 565.3,89.7 566.3,90.2 567.3,109.2 568.3,224.5 569.3,245.5 570.3,122.6 571.3,94.7 572.3,73.4 573.3,99.6 574.3,119.7 575.3,218.2 576.3,245.1 577.3,119.2 578.3,223.2 579.3,128.3 580.3,88.0 581.3,114.4 582.3,226.0 583.3,247.4 584.3,117.0 585.3,87.7 586.3,103.1 587.4,106.3 588.4,113.7 589.4,187.7 590.4,245.8 591.4,107.0 592.4,93.5 593.4,100.0 594.4,97.5 595.4,112.8 596.4,235.2 597.4,225.7 598.4,110.8 599.4,98.6 600.4,85.2 601.4,91.9 602.4,105.0 603.4,223.4 604.4,254.6 605.4,97.2 606.4,95.0 607.4,89.3 608.4,217.5 609.5,146.7 610.5,220.6 611.5,253.0 612.5,151.5 613.5,117.3 614.5,105.2 615.5,131.7 616.5,135.6 617.5,222.1 618.5,245.5 619.5,142.3 620.5,72.1 621.5,91.9 622.5,119.5 623.5,117.2 624.5,230.1 625.5,252.9 626.5,112.2 627.5,93.2 628.5,101.3 629.5,96.6 630.5,112.7 631.6,227.9 632.6,240.7 633.6,93.9 634.6,228.2 635.6,93.5 636.6,70.4 637.6,78.2 638.6,214.3 639.6,235.1 640.6,72.0 641.6,63.1 642.6,77.3 643.6,78.5 644.6,106.3 645.6,209.8 646.6,229.6 647.6,99.4 648.6,92.8 649.6,99.9 650.6,105.2 651.6,122.9 652.6,230.4 653.7,250.1 654.7,121.9 655.7,93.5 656.7,101.7 657.7,108.6 658.7,112.0 659.7,220.6 660.7,256.1 661.7,116.4 662.7,103.8 663.7,108.9 664.7,220.6 665.7,145.1 666.7,228.7 667.7,255.5 668.7,129.8 669.7,101.6 670.7,93.0 671.7,101.7 672.7,127.9 673.7,222.6 674.7,245.2 675.8,131.4 676.8,90.0 677.8,107.7 678.8,112.2 679.8,123.6 680.8,234.8 681.8,250.7 682.8,126.1 683.8,99.7 684.8,86.9 685.8,104.4 686.8,114.1 687.8,197.8 688.8,220.7 689.8,127.2 690.8,70.4 691.8,92.5 692.8,108.6 693.8,85.1 694.8,229.3 695.8,252.5 696.8,108.9 697.9,100.0 698.9,195.0 699.9,221.5 700.9,226.0 701.9,248.0 702.9,235.9 703.9,138.4 704.9,63.1 705.9,95.7 706.9,120.3 707.9,114.4 708.9,212.3 709.9,230.4 710.9,97.1 711.9,53.1 712.9,112.5 713.9,64.8 714.9,77.4 715.9,234.9 716.9,254.9 717.9,133.6 718.9,112.0 720.0,59.8 721.0,73.4 722.0,69.5 723.0,213.7 724.0,234.1 725.0,121.4 726.0,110.0 727.0,69.5 728.0,55.4 729.0,124.7 730.0,231.0 731.0,257.4 732.0,138.1 733.0,110.9 734.0,52.5 735.0,112.7 736.0,84.4 737.0,179.1 738.0,173.3 739.0,55.1 740.0,67.1 741.1,74.3 742.1,231.0 743.1,214.3 744.1,241.8 745.1,254.9 746.1,138.1 747.1,125.3 748.1,113.3 749.1,123.4 750.1,119.4 751.1,228.5 752.1,235.2 753.1,137.5 754.1,98.9 755.1,99.6 756.1,129.3 757.1,127.6 758.1,219.2 759.1,253.8 760.1,156.5 761.1,95.3 762.1,109.1 763.2,109.1 764.2,139.2 765.2,232.9 766.2,192.2 767.2,144.2 768.2,117.3 769.2,132.2 770.2,128.3 771.2,139.8 772.2,243.2 773.2,250.8 774.2,134.5 775.2,111.9 776.2,130.4 777.2,122.5 778.2,131.8 779.2,236.3 780.2,255.4 781.2,141.4 782.2,119.7 783.2,107.7 784.2,134.3 785.3,141.0 786.3,253.0 787.3,265.3 788.3,145.3 789.3,128.7 790.3,114.2 791.3,131.4 792.3,153.2 793.3,256.8 794.3,263.8 795.3,142.4 796.3,152.0 797.3,268.3 798.3,141.0 799.3,156.8 800.3,248.0 801.3,256.9 802.3,153.5 803.3,168.8 804.3,266.6 805.3,152.1 806.3,147.1 807.4,251.5 808.4,262.2 809.4,147.1 810.4,118.6 811.4,116.4 812.4,126.4 813.4,122.9 814.4,249.1 815.4,248.8 816.4,140.7 817.4,110.8 818.4,113.7 819.4,116.1 820.4,139.2 821.4,235.1 822.4,255.8 823.4,140.4 824.4,131.5 825.4,114.2 826.4,116.4 827.4,146.5 828.4,242.7 829.5,257.1 830.5,141.4 831.5,112.0 832.5,122.8 833.5,126.7 834.5,146.7 835.5,242.7 836.5,259.6 837.5,145.1 838.5,128.4 839.5,119.8 840.5,130.3 841.5,158.4 842.5,229.9 843.5,250.1 844.5,151.0 845.5,128.9 846.5,125.9 847.5,140.1 848.5,146.8 849.5,250.7 850.5,255.0 851.6,152.3 852.6,115.3 853.6,123.4 854.6,115.3 855.6,138.5 856.6,217.8 857.6,257.7 858.6,124.5 859.6,123.1 860.6,118.9 861.6,109.2 862.6,117.2 863.6,219.2 864.6,232.3 865.6,133.9 866.6,120.0 867.6,107.0 868.6,123.4 869.6,138.1 870.6,230.9 871.6,258.6 872.6,128.3 873.7,117.2 874.7,109.2 875.7,123.7 876.7,137.8 877.7,239.0 878.7,256.3 879.7,127.8 880.7,130.3 881.7,96.0 882.7,110.6 883.7,144.3 884.7,240.1 885.7,259.7 886.7,157.1 887.7,140.7 888.7,134.0 889.7,133.4 890.7,150.2 891.7,248.2 892.7,255.0 893.7,139.8 894.7,334.0 895.8,69.3 896.8,86.1 897.8,94.9 898.8,207.9 899.8,241.9 900.8,89.9 901.8,98.0 902.8,71.0 903.8,77.4 904.8,89.1 905.8,207.8 906.8,238.2 907.8,101.3 908.8,76.9 909.8,85.2 910.8,98.8 911.8,224.2 912.8,235.5 913.8,230.7 914.8,86.3 915.8,80.1 916.8,62.4 917.9,70.2 918.9,104.1 919.9,203.3 920.9,237.3 921.9,99.2 922.9,84.3 923.9,83.3 924.9,218.4 925.9,125.3 926.9,215.4 927.9,231.5 928.9,96.1 929.9,77.6 930.9,68.5 931.9,235.7 932.9,93.6 933.9,206.5 934.9,228.8 935.9,101.9 936.9,75.5 937.9,84.6 938.9,75.1 940.0,97.4 941.0,218.5 942.0,245.5 943.0,92.1 944.0,76.0 945.0,193.8 946.0,88.6 947.0,90.7 948.0,215.6 949.0,227.9 950.0,91.1 951.0,77.1 952.0,72.3 953.0,82.1 954.0,96.0 955.0,215.9 956.0,202.2 957.0,101.0 958.0,82.9 959.0,77.1 960.0,86.1 961.1,94.1 962.1,219.2 963.1,238.5 964.1,105.0 965.1,90.4 966.1,73.8 967.1,84.7 968.1,94.6 969.1,219.2 970.1,238.5 971.1,113.9 972.1,104.1 973.1,100.8 974.1,115.0 975.1,224.5 976.1,244.4 977.1,232.4 978.1,142.0 979.1,126.4 980.1,125.6 981.1,109.1 982.1,125.3 983.2,231.0 984.2,215.9 985.2,110.0 986.2,114.5 987.2,120.5 988.2,111.4 989.2,124.4 990.2,238.0 991.2,246.0 992.2,121.9 993.2,110.9 994.2,102.8 995.2,114.7 996.2,135.6 997.2,225.7 998.2,241.0 999.2,128.1 1000.2,108.3 1001.2,205.8 1002.2,108.0 1003.2,103.9 1004.2,227.1 1005.3,239.6 1006.3,113.0 1007.3,90.4 1008.3,89.3 1009.3,108.6 1010.3,119.8 1011.3,222.6 1012.3,235.7 1013.3,120.8 1014.3,101.9 1015.3,76.6 1016.3,96.9 1017.3,104.5 1018.3,222.3 1019.3,238.7 1020.3,124.8 1021.3,99.2 1022.3,103.8 1023.3,102.4 1024.3,105.0 1025.3,223.4 1026.3,248.8 1027.4,124.8 1028.4,96.6 1029.4,99.7 1030.4,107.4 1031.4,214.5 1032.4,229.8 1033.4,250.7 1034.4,101.1 1035.4,96.3 1036.4,81.2 1037.4,79.7 1038.4,103.1 1039.4,221.5 1040.4,246.9 1041.4,115.8 1042.4,93.9 1043.4,97.8 1044.4,95.2 1045.4,105.2 1046.4,217.9 1047.4,235.2 1048.4,100.0 1049.5,68.5 1050.5,69.9 1051.5,78.3 1052.5,85.8 1053.5,223.1 1054.5,234.9 1055.5,101.4 1056.5,72.9 1057.5,75.4 1058.5,77.9 1059.5,91.6 1060.5,226.5 1061.5,238.5 1062.5,88.3 1063.5,95.2 1064.5,114.8 1065.5,221.2 1066.5,232.9 1067.5,248.5 1068.5,251.0 1069.5,94.7 1070.5,62.8 1071.6,60.1 1072.6,66.5 1073.6,91.3 1074.6,208.1 1075.6,224.3 1076.6,79.4 1077.6,55.3 1078.6,43.4 1079.6,61.0 1080.6,89.1 1081.6,200.1 1082.6,221.0 1083.6,66.6 1084.6,64.9 1085.6,39.8 1086.6,60.4 1087.6,53.2 1088.6,203.1 1089.6,224.3 1090.6,69.5 1091.6,47.2 1092.6,82.1 1093.7,62.0 1094.7,80.7 1095.7,228.4 1096.7,226.2 1097.7,61.8 1098.7,57.3 1099.7,45.0 1100.7,69.0 1101.7,70.1 1102.7,195.9 1103.7,198.3 1104.7,67.9 1105.7,47.8 1106.7,72.3 1107.7,58.7 1108.7,201.6 1109.7,218.5 1110.7,226.8 1111.7,66.2 1112.7,82.4 1113.7,30.0 1114.7,65.2 1115.8,94.7 1116.8,210.6 1117.8,221.4 1118.8,83.2 1119.8,59.2 1120.8,70.5 1121.8,56.5 1122.8,66.5 1123.8,185.3 1124.8,146.0 1125.8,50.4 1126.8,60.9 1127.8,61.2 1128.8,65.6 1129.8,81.9 1130.8,203.6 1131.8,210.0 1132.8,67.9 1133.8,57.1 1134.8,62.9 1135.8,60.1 1136.8,71.3 1137.9,184.9 1138.9,214.2 1139.9,94.4 1140.9,77.1 1141.9,61.0 1142.9,81.5 1143.9,93.8 1144.9,208.9 1145.9,211.1 1146.9,224.3 1147.9,89.3 1148.9,56.2 1149.9,80.1 1150.9,96.4 1151.9,217.0 1152.9,131.7 1153.9,69.8 1154.9,77.6 1155.9,61.7 1156.9,61.0 1157.9,81.2 1158.9,218.9 1160.0,226.8 1161.0,91.0 1162.0,83.0 1163.0,120.3 1164.0,263.0 1165.0,128.4 1166.0,223.4 1167.0,240.7 1168.0,104.7 1169.0,92.8 1170.0,133.4"/>
  <polyline fill="none" stroke="#ff7f0e" stroke-width="2" stroke-dasharray="6 4" points="70.0,360.0 71.0,256.3 72.0,249.8 73.0,206.7 74.0,179.5 75.0,166.7 76.0,161.7 77.0,173.7 78.0,172.7 79.0,153.8 80.0,150.6 81.1,151.3 82.1,151.8 83.1,149.7 84.1,150.2 85.1,153.2 86.1,155.1 87.1,157.7 88.1,159.5 89.1,160.8 90.1,163.0 91.1,161.7 92.1,157.1 93.1,157.9 94.1,157.0 95.1,158.1 96.1,154.7 97.1,154.6 98.1,154.3 99.1,156.7 100.1,154.1 101.1,156.9 102.1,156.3 103.2,159.1 104.2,158.9 105.2,158.2 106.2,157.9 107.2,159.5 108.2,158.3 109.2,158.8 110.2,163.1 111.2,165.7 112.2,167.3 113.2,169.1 114.2,173.2 115.2,175.4 116.2,174.3 117.2,168.1 118.2,165.0 119.2,162.1 120.2,160.7 121.2,154.1 122.2,148.5 123.2,145.3 124.2,144.9 125.3,142.8 126.3,141.9 127.3,142.6 128.3,144.7 129.3,147.0 130.3,150.7 131.3,151.2 132.3,155.0 133.3,160.6 134.3,159.0 135.3,160.1 136.3,160.6 137.3,158.5 138.3,157.4 139.3,154.2 140.3,151.1 141.3,151.1 142.3,148.7 143.3,145.5 144.3,145.7 145.3,145.2 146.3,145.5 147.4,145.0 148.4,143.5 149.4,144.9 150.4,146.3 151.4,146.9 152.4,148.9 153.4,144.8 154.4,146.7 155.4,148.1 156.4,148.1 157.4,147.6 158.4,148.9 159.4,148.5 160.4,153.1 161.4,153.4 162.4,153.6 163.4,154.3 164.4,154.5 165.4,154.1 166.4,156.1 167.4,170.8 168.4,171.3 169.5,172.0 170.5,174.7 171.5,176.6 172.5,177.0 173.5,174.1 174.5,161.4 175.5,159.3 176.5,159.1 177.5,157.1 178.5,157.3 179.5,154.6 180.5,157.6 181.5,156.1 182.5,157.3 183.5,158.1 184.5,157.6 185.5,158.0 186.5,156.3 187.5,156.2 188.5,155.8 189.5,154.5 190.5,152.9 191.6,168.8 192.6,171.2 193.6,174.8 194.6,174.3 195.6,174.5 196.6,176.0 197.6,167.8 198.6,166.6 199.6,178.6 200.6,175.6 201.6,175.8 202.6,174.8 203.6,174.3 204.6,184.3 205.6,170.1 206.6,154.4 207.6,157.2 208.6,155.6 209.6,153.8 210.6,154.5 211.6,152.1 212.6,150.0 213.7,149.2 214.7,149.6 215.7,148.5 216.7,150.0 217.7,148.0 218.7,148.7 219.7,150.0 220.7,150.3 221.7,147.8 222.7,146.1 223.7,144.7 224.7,145.7 225.7,147.0 226.7,145.4 227.7,145.0 228.7,146.4 229.7,148.4 230.7,148.6 231.7,148.2 232.7,148.1 233.7,147.9 234.7,147.0 235.8,147.2 236.8,151.8 237.8,152.9 238.8,152.9 239.8,153.1 240.8,157.0 241.8,158.9 242.8,174.5 243.8,173.6 244.8,174.7 245.8,174.1 246.8,173.2 247.8,187.6 248.8,192.8 249.8,180.1 250.8,180.9 251.8,181.5 252.8,183.4 253.8,184.1 254.8,180.3 255.8,189.9 256.8,197.7 257.9,203.2 258.9,211.8 259.9,214.3 260.9,216.2 261.9,213.7 262.9,209.1 263.9,209.2 264.9,208.6 265.9,205.8 266.9,204.9 267.9,206.7 268.9,202.2 269.9,198.3 270.9,193.5 271.9,189.7 272.9,186.6 273.9,188.1 274.9,186.8 275.9,185.9 276.9,183.9 277.9,182.4 278.9,182.2 280.0,182.7 281.0,181.7 282.0,181.1 283.0,180.8 284.0,181.9 285.0,181.3 286.0,182.5 287.0,182.4 288.0,182.1 289.0,182.5 290.0,182.7 291.0,181.1 292.0,181.6 293.0,181.2 294.0,179.9 295.0,179.0 296.0,178.4 297.0,180.3 298.0,196.7 299.0,200.6 300.0,202.8 301.1,205.6 302.1,206.1 303.1,207.7 304.1,208.4 305.1,195.6 306.1,193.7 307.1,192.5 308.1,198.5 309.1,201.8 310.1,201.8 311.1,201.1 312.1,202.0 313.1,202.2 314.1,204.3 315.1,199.1 316.1,196.0 317.1,195.0 318.1,195.4 319.1,195.3 320.1,196.1 321.1,196.3 322.1,195.2 323.2,195.4 324.2,194.6 325.2,191.8 326.2,191.1 327.2,189.3 328.2,192.0 329.2,215.9 330.2,214.3 331.2,213.1 332.2,227.2 333.2,241.3 334.2,241.1 335.2,234.2 336.2,207.2 337.2,206.1 338.2,205.4 339.2,188.9 340.2,168.2 341.2,163.1 342.2,159.5 343.2,157.5 344.2,156.5 345.3,155.6 346.3,155.4 347.3,154.4 348.3,153.4 349.3,152.8 350.3,152.2 351.3,153.1 352.3,152.2 353.3,165.3 354.3,166.8 355.3,167.4 356.3,169.5 357.3,169.9 358.3,170.0 359.3,171.5 360.3,154.6 361.3,151.1 362.3,147.1 363.3,142.2 364.3,141.5 365.3,138.0 366.3,136.9 367.4,139.8 368.4,141.6 369.4,145.4 370.4,147.6 371.4,160.0 372.4,161.0 373.4,158.6 374.4,155.2 375.4,157.2 376.4,171.2 377.4,173.5 378.4,160.8 379.4,160.2 380.4,161.1 381.4,160.3 382.4,154.8 383.4,138.5 384.4,133.2 385.4,131.4 386.4,130.0 387.4,131.5 388.4,132.7 389.5,135.2 390.5,135.5 391.5,137.0 392.5,136.5 393.5,139.9 394.5,142.0 395.5,144.0 396.5,145.5 397.5,145.0 398.5,147.7 399.5,151.2 400.5,150.3 401.5,147.5 402.5,146.8 403.5,145.2 404.5,147.0 405.5,145.3 406.5,142.4 407.5,142.4 408.5,143.6 409.5,142.1 410.5,142.4 411.6,142.1 412.6,144.1 413.6,159.9 414.6,161.3 415.6,160.6 416.6,162.2 417.6,163.0 418.6,163.4 419.6,161.8 420.6,148.1 421.6,149.1 422.6,137.9 423.6,137.4 424.6,138.5 425.6,139.3 426.6,140.4 427.6,142.6 428.6,142.4 429.6,155.9 430.6,176.8 431.6,179.2 432.6,180.8 433.7,181.9 434.7,182.5 435.7,182.5 436.7,182.7 437.7,182.9 438.7,183.9 439.7,184.3 440.7,184.3 441.7,182.5 442.7,180.2 443.7,175.5 444.7,153.4 445.7,144.5 446.7,136.9 447.7,129.1 448.7,123.9 449.7,122.4 450.7,124.1 451.7,121.8 452.7,122.1 453.7,124.0 454.7,127.0 455.8,128.1 456.8,129.3 457.8,128.7 458.8,131.4 459.8,132.2 460.8,134.7 461.8,135.5 462.8,135.5 463.8,135.2 464.8,134.6 465.8,136.6 466.8,143.0 467.8,143.5 468.8,143.0 469.8,147.0 470.8,145.5 471.8,146.3 472.8,144.9 473.8,137.7 474.8,136.6 475.8,135.8 476.8,134.6 477.9,135.9 478.9,138.2 479.9,140.1 480.9,145.1 481.9,145.2 482.9,146.3 483.9,145.7 484.9,144.6 485.9,144.3 486.9,142.8 487.9,139.3 488.9,139.1 489.9,140.2 490.9,138.7 491.9,137.9 492.9,135.8 493.9,134.2 494.9,133.4 495.9,129.8 496.9,127.7 497.9,126.8 498.9,125.5 500.0,126.1 501.0,127.9 502.0,130.8 503.0,134.9 504.0,137.1 505.0,138.3 506.0,142.6 507.0,142.9 508.0,142.8 509.0,143.0 510.0,144.1 511.0,143.8 512.0,145.8 513.0,146.7 514.0,146.7 515.0,147.1 516.0,146.2 517.0,145.1 518.0,147.5 519.0,147.6 520.0,147.5 521.1,149.7 522.1,151.2 523.1,152.4 524.1,154.6 525.1,156.0 526.1,172.1 527.1,173.9 528.1,173.6 529.1,172.3 530.1,171.1 531.1,168.8 532.1,166.3 533.1,149.6 534.1,146.9 535.1,146.9 536.1,147.3 537.1,146.3 538.1,146.1 539.1,143.3 540.1,141.4 541.1,139.1 542.1,137.0 543.2,135.4 544.2,133.1 545.2,133.4 546.2,132.8 547.2,130.8 548.2,131.1 549.2,131.4 550.2,129.8 551.2,132.0 552.2,130.3 553.2,130.2 554.2,133.1 555.2,131.1 556.2,131.5 557.2,134.6 558.2,135.5 559.2,154.1 560.2,159.1 561.2,159.5 562.2,163.3 563.2,163.9 564.2,162.5 565.3,161.0 566.3,143.0 567.3,139.0 568.3,137.9 569.3,137.4 570.3,137.5 571.3,138.5 572.3,139.5 573.3,137.2 574.3,138.5 575.3,140.0 576.3,139.1 577.3,139.0 578.3,138.5 579.3,156.9 580.3,164.7 581.3,163.1 582.3,162.3 583.3,163.5 584.3,163.8 585.3,163.5 586.3,144.1 587.4,140.5 588.4,143.1 589.4,143.0 590.4,137.6 591.4,137.3 592.4,135.9 593.4,136.7 594.4,136.3 595.4,135.0 596.4,134.9 597.4,141.7 598.4,138.8 599.4,139.4 600.4,140.1 601.4,138.0 602.4,137.2 603.4,136.1 604.4,134.4 605.4,138.5 606.4,136.6 607.4,136.0 608.4,136.6 609.5,154.6 610.5,160.5 611.5,160.1 612.5,159.9 613.5,167.6 614.5,170.8 615.5,173.1 616.5,160.8 617.5,159.3 618.5,159.5 619.5,158.4 620.5,157.1 621.5,150.6 622.5,148.7 623.5,147.0 624.5,144.4 625.5,145.5 626.5,146.6 627.5,142.3 628.5,145.3 629.5,146.6 630.5,143.3 631.6,142.7 632.6,142.4 633.6,140.6 634.6,138.0 635.6,157.3 636.6,156.2 637.6,152.5 638.6,147.5 639.6,145.6 640.6,144.8 641.6,141.7 642.6,118.1 643.6,115.8 644.6,116.9 645.6,120.9 646.6,120.3 647.6,119.5 648.6,123.4 649.6,127.7 650.6,130.9 651.6,134.7 652.6,137.1 653.7,140.0 654.7,143.0 655.7,146.2 656.7,146.3 657.7,146.5 658.7,147.0 659.7,145.5 660.7,144.0 661.7,144.9 662.7,144.1 663.7,145.6 664.7,146.6 665.7,162.6 666.7,167.4 667.7,168.5 668.7,168.4 669.7,170.3 670.7,170.0 671.7,167.8 672.7,150.8 673.7,148.3 674.7,147.5 675.8,146.0 676.8,146.2 677.8,144.6 678.8,146.7 679.8,148.1 680.8,147.5 681.8,149.3 682.8,150.0 683.8,149.3 684.8,150.7 685.8,147.7 686.8,146.6 687.8,145.2 688.8,139.9 689.8,135.7 690.8,135.8 691.8,131.6 692.8,132.4 693.8,133.0 694.8,128.9 695.8,133.4 696.8,137.9 697.9,135.3 698.9,139.6 699.9,154.2 700.9,170.3 701.9,190.5 702.9,193.2 703.9,190.8 704.9,195.0 705.9,189.7 706.9,175.5 707.9,161.0 708.9,145.1 709.9,140.0 710.9,139.2 711.9,133.3 712.9,131.9 713.9,134.3 714.9,126.4 715.9,121.1 716.9,124.3 717.9,127.8 718.9,133.0 720.0,141.4 721.0,133.9 722.0,135.1 723.0,134.0 724.0,131.0 725.0,128.0 726.0,126.3 727.0,126.0 728.0,127.4 729.0,124.8 730.0,132.7 731.0,135.2 732.0,138.5 733.0,140.9 734.0,141.0 735.0,138.6 736.0,146.7 737.0,141.0 738.0,133.6 739.0,121.6 740.0,109.7 741.1,103.5 742.1,106.6 743.1,123.5 744.1,142.0 745.1,151.0 746.1,162.7 747.1,174.5 748.1,182.8 749.1,188.4 750.1,173.0 751.1,159.4 752.1,157.5 753.1,154.7 754.1,154.7 755.1,150.9 756.1,148.9 757.1,149.8 758.1,151.0 759.1,149.6 760.1,152.3 761.1,155.0 762.1,154.5 763.2,155.8 764.2,152.9 765.2,154.6 766.2,156.5 767.2,147.7 768.2,146.0 769.2,149.1 770.2,152.4 771.2,155.2 772.2,155.3 773.2,156.7 774.2,165.1 775.2,163.7 776.2,162.9 777.2,162.7 778.2,161.9 779.2,160.7 780.2,159.8 781.2,160.4 782.2,161.4 783.2,162.5 784.2,159.2 785.3,160.9 786.3,162.2 787.3,164.6 788.3,166.1 789.3,166.6 790.3,167.9 791.3,168.8 792.3,168.4 793.3,170.2 794.3,170.7 795.3,170.5 796.3,170.1 797.3,173.4 798.3,195.4 799.3,196.8 800.3,197.3 801.3,196.0 802.3,195.1 803.3,196.6 804.3,199.1 805.3,198.8 806.3,200.4 807.4,199.0 808.4,199.5 809.4,200.3 810.4,199.3 811.4,192.2 812.4,170.7 813.4,167.0 814.4,163.6 815.4,163.3 816.4,161.3 817.4,160.4 818.4,159.3 819.4,158.9 820.4,157.5 821.4,159.8 822.4,157.8 823.4,158.8 824.4,158.7 825.4,161.7 826.4,161.8 827.4,161.8 828.4,162.9 829.5,163.9 830.5,164.1 831.5,164.3 832.5,161.5 833.5,162.7 834.5,164.2 835.5,164.2 836.5,164.2 837.5,164.5 838.5,165.1 839.5,167.4 840.5,167.0 841.5,167.5 842.5,169.2 843.5,167.4 844.5,166.0 845.5,166.8 846.5,166.9 847.5,167.8 848.5,169.2 849.5,167.5 850.5,170.5 851.6,171.2 852.6,171.4 853.6,169.4 854.6,169.1 855.6,165.5 856.6,164.4 857.6,159.7 858.6,160.0 859.6,156.1 860.6,157.2 861.6,156.5 862.6,155.7 863.6,152.6 864.6,152.8 865.6,149.2 866.6,150.5 867.6,150.1 868.6,148.4 869.6,150.4 870.6,153.4 871.6,155.1 872.6,158.8 873.7,158.0 874.7,157.6 875.7,157.9 876.7,158.0 877.7,157.9 878.7,159.1 879.7,158.8 880.7,158.7 881.7,160.6 882.7,158.7 883.7,156.8 884.7,157.7 885.7,157.9 886.7,158.4 887.7,162.6 888.7,164.1 889.7,169.5 890.7,172.8 891.7,173.6 892.7,174.8 893.7,174.1 894.7,171.6 895.8,199.2 896.8,190.0 897.8,183.2 898.8,175.3 899.8,169.6 900.8,167.7 901.8,160.6 902.8,126.9 903.8,127.1 904.8,125.9 905.8,125.0 906.8,125.0 907.8,124.5 908.8,126.1 909.8,123.1 910.8,125.1 911.8,128.2 912.8,147.5 913.8,151.4 914.8,150.4 915.8,148.2 916.8,148.7 917.9,145.4 918.9,141.4 919.9,124.2 920.9,119.6 921.9,120.5 922.9,122.4 923.9,123.0 924.9,126.0 925.9,147.1 926.9,150.2 927.9,151.9 928.9,151.1 929.9,150.6 930.9,149.7 931.9,147.5 932.9,150.0 933.9,145.5 934.9,144.2 935.9,143.8 936.9,144.7 937.9,144.4 938.9,146.7 940.0,123.7 941.0,124.3 942.0,126.0 943.0,128.4 944.0,127.0 945.0,127.0 946.0,142.6 947.0,144.6 948.0,143.6 949.0,143.2 950.0,140.7 951.0,140.5 952.0,140.7 953.0,123.3 954.0,122.4 955.0,123.1 956.0,123.2 957.0,119.5 958.0,120.9 959.0,121.7 960.0,122.4 961.1,123.0 962.1,122.7 963.1,123.2 964.1,128.4 965.1,129.0 966.1,130.1 967.1,129.6 968.1,129.4 969.1,129.5 970.1,129.5 971.1,129.5 972.1,130.7 973.1,132.7 974.1,136.5 975.1,140.9 976.1,159.4 977.1,163.0 978.1,162.2 979.1,166.2 980.1,169.4 981.1,172.9 982.1,172.1 983.2,157.9 984.2,156.0 985.2,153.6 986.2,149.0 987.2,147.3 988.2,146.6 989.2,146.9 990.2,146.8 991.2,147.8 992.2,152.1 993.2,153.8 994.2,153.3 995.2,150.8 996.2,151.2 997.2,152.8 998.2,151.1 999.2,150.4 1000.2,151.3 1001.2,150.9 1002.2,165.6 1003.2,164.6 1004.2,160.1 1005.3,160.3 1006.3,160.1 1007.3,157.9 1008.3,155.4 1009.3,138.7 1010.3,138.8 1011.3,141.1 1012.3,140.5 1013.3,139.9 1014.3,141.0 1015.3,142.7 1016.3,140.9 1017.3,139.2 1018.3,137.0 1019.3,137.0 1020.3,137.4 1021.3,138.0 1022.3,137.6 1023.3,141.5 1024.3,142.2 1025.3,142.3 1026.3,142.5 1027.4,143.9 1028.4,143.9 1029.4,143.5 1030.4,143.0 1031.4,143.7 1032.4,159.3 1033.4,160.2 1034.4,160.5 1035.4,157.1 1036.4,157.1 1037.4,154.4 1038.4,150.5 1039.4,134.6 1040.4,133.4 1041.4,132.8 1042.4,134.9 1043.4,134.6 1044.4,137.0 1045.4,139.2 1046.4,139.5 1047.4,139.0 1048.4,137.3 1049.5,135.0 1050.5,131.4 1051.5,127.4 1052.5,125.0 1053.5,122.3 1054.5,123.0 1055.5,122.9 1056.5,123.1 1057.5,123.8 1058.5,124.6 1059.5,124.5 1060.5,125.3 1061.5,125.8 1062.5,126.3 1063.5,124.4 1064.5,127.6 1065.5,133.3 1066.5,153.7 1067.5,173.9 1068.5,177.1 1069.5,178.8 1070.5,179.8 1071.6,175.1 1072.6,167.3 1073.6,145.2 1074.6,125.0 1075.6,119.2 1076.6,115.4 1077.6,113.2 1078.6,112.1 1079.6,109.8 1080.6,109.0 1081.6,108.7 1082.6,107.5 1083.6,107.1 1084.6,105.2 1085.6,106.6 1086.6,106.1 1087.6,106.0 1088.6,100.9 1089.6,101.3 1090.6,101.8 1091.6,102.2 1092.6,99.6 1093.7,105.7 1094.7,105.9 1095.7,109.8 1096.7,113.4 1097.7,113.7 1098.7,112.6 1099.7,114.1 1100.7,108.8 1101.7,109.8 1102.7,108.2 1103.7,103.6 1104.7,99.6 1105.7,100.5 1106.7,99.1 1107.7,103.0 1108.7,101.6 1109.7,120.3 1110.7,123.6 1111.7,127.6 1112.7,127.4 1113.7,132.4 1114.7,126.3 1115.8,127.2 1116.8,112.0 1117.8,110.9 1118.8,110.1 1119.8,112.5 1120.8,109.2 1121.8,115.0 1122.8,113.7 1123.8,109.7 1124.8,106.1 1125.8,95.3 1126.8,90.6 1127.8,90.9 1128.8,89.6 1129.8,90.8 1130.8,93.1 1131.8,95.7 1132.8,104.8 1133.8,107.3 1134.8,106.8 1135.8,107.0 1136.8,106.2 1137.9,104.7 1138.9,102.0 1139.9,102.6 1140.9,106.4 1141.9,109.3 1142.9,109.0 1143.9,112.1 1144.9,115.3 1145.9,118.7 1146.9,118.2 1147.9,136.8 1148.9,138.5 1149.9,137.9 1150.9,137.7 1151.9,138.0 1152.9,139.2 1153.9,127.9 1154.9,105.8 1155.9,104.1 1156.9,104.9 1157.9,102.2 1158.9,100.0 1160.0,100.2 1161.0,113.8 1162.0,116.9 1163.0,117.6 1164.0,126.0 1165.0,154.9 1166.0,161.6 1167.0,162.3 1168.0,164.3 1169.0,166.2 1170.0,167.6"/>
  <circle cx="72.0" cy="120.5" r="4" fill="#d62728"><title>2023-01-03: 1536</title></circle>
<circle cx="334.2" cy="138.7" r="4" fill="#d62728"><title>2023-09-21: 1419</title></circle>
<circle cx="895.8" cy="69.3" r="4" fill="#d62728"><title>2025-04-02: 1864</title></circle>
  <text x="70" y="400" font-family="Arial" font-size="12" fill="#333">2023-01-01</text>
  <text x="1090" y="400" font-family="Arial" font-size="12" fill="#333">2025-12-31</text>
  <text x="900" y="24" font-family="Arial" font-size="12" fill="#1f77b4">Conteo diario</text>
  <text x="1010" y="24" font-family="Arial" font-size="12" fill="#ff7f0e">Promedio movil</text>
  <text x="1120" y="24" font-family="Arial" font-size="12" fill="#d62728">Peak</text>
</svg>
